<?xml version="1.0" encoding="UTF-8"?>
<svg version="1.1" xmlns="http://www.w3.org/2000/svg" width="500" height="500">
<path d="M0 0 C165 0 330 0 500 0 C500 165 500 330 500 500 C335 500 170 500 0 500 C0 335 0 170 0 0 Z " fill="#2563EB" transform="translate(0,0)"/>
<path d="M0 0 C3.36895122 1.22559979 6.77276132 2.34495867 10.17529297 3.47314453 C11.38572266 3.88048828 12.59615234 4.28783203 13.84326172 4.70751953 C22.43463565 7.48237322 32.86566138 8.92678361 41.37451172 5.26611328 C44.04009327 3.53875825 46.50224238 1.69721277 48.98779297 -0.27685547 C52.51399521 -2.67272601 53.59057598 -3.27685547 57.98779297 -3.27685547 C57.43902353 0.88341014 56.11431703 3.32000164 53.61279297 6.66064453 C48.13737362 14.30599393 45.9792487 19.25658125 46.98779297 28.72314453 C48.45137323 36.75541241 50.75221499 44.28273706 53.77539062 51.8605957 C57.83770537 62.09676323 60.9869895 72.49571621 56.48779297 83.28564453 C53.20414854 88.61141412 48.26037422 91.81411203 42.55029297 94.09814453 C28.15430662 96.62375617 16.8995133 89.86579685 4.24560547 83.74658203 C-0.44736435 81.50072956 -4.58994156 79.5669295 -9.82470703 79.09814453 C-10.61490234 79.02337891 -11.40509766 78.94861328 -12.21923828 78.87158203 C-13.10675781 78.79810547 -13.10675781 78.79810547 -14.01220703 78.72314453 C-13.68653173 80.20884425 -13.32440223 81.68654427 -12.94970703 83.16064453 C-12.75248047 83.98435547 -12.55525391 84.80806641 -12.35205078 85.65673828 C-8.49277232 94.48919773 -0.79699428 101.16794533 5.98779297 107.78564453 C37.94439918 139.09834898 37.94439918 139.09834898 38.30029297 158.03564453 C38.33767578 159.33115234 38.37505859 160.62666016 38.41357422 161.96142578 C37.92101078 166.31315602 36.7288967 168.35479725 33.98779297 171.72314453 C27.60545301 176.64286492 21.89507855 177.61219119 13.98779297 176.72314453 C-0.90293656 173.00046215 -13.71432274 164.18451658 -26.57470703 156.16064453 C-48.20699909 141.3817526 -48.20699909 141.3817526 -73.01220703 137.72314453 C-76.18675128 139.24428032 -77.51949934 140.33913416 -78.70751953 143.67626953 C-79.98142078 150.30055604 -77.4774018 154.25487903 -74.01220703 159.72314453 C-71.94059604 162.71814547 -69.76408326 165.62613743 -67.57470703 168.53564453 C-54.37571954 186.54897108 -54.37571954 186.54897108 -54.94970703 194.59814453 C-55.9840955 199.57220386 -57.64311581 203.39105578 -61.32470703 206.97314453 C-67.91457439 211.26422095 -74.70305994 211.63199853 -82.31689453 210.32861328 C-90.02428706 208.31742499 -97.01568501 204.3868058 -104.04785156 200.73974609 C-106.96193541 199.23163708 -109.8920394 197.75731047 -112.82470703 196.28564453 C-114.2265625 195.57601562 -114.2265625 195.57601562 -115.65673828 194.85205078 C-119.0408593 193.23014203 -121.79222258 192.54754422 -125.51220703 192.47314453 C-126.28564453 192.44736328 -127.05908203 192.42158203 -127.85595703 192.39501953 C-130.05459342 192.58015041 -130.05459342 192.58015041 -131.79345703 193.86376953 C-133.58803694 196.60165426 -133.38193085 198.51345424 -133.01220703 201.72314453 C-131.98624702 204.0102662 -131.98624702 204.0102662 -130.32470703 206.09814453 C-129.68146484 206.96439453 -129.03822266 207.83064453 -128.37548828 208.72314453 C-125.08535356 212.89971224 -121.72289632 217.01483483 -118.34887695 221.1237793 C-82.99436309 264.3694327 -82.99436309 264.3694327 -82.76220703 282.53564453 C-82.72353516 284.3396875 -82.72353516 284.3396875 -82.68408203 286.18017578 C-83.04469052 290.07388892 -83.96993798 292.4104499 -86.01220703 295.72314453 C-91.20456229 300.01248149 -95.91323903 300.39973472 -102.55908203 300.16455078 C-118.40006918 298.13962822 -133.81964265 287.4097273 -146.01220703 277.72314453 C-149.28250963 275.18290034 -152.56928717 272.66402882 -155.85595703 270.14501953 C-157.86440497 268.60388374 -159.8653191 267.05284219 -161.85595703 265.48876953 C-169.70920189 259.48600191 -178.7384515 253.611457 -189.03173828 254.30517578 C-192.47430388 255.03171329 -194.51293484 256.28795625 -197.01220703 258.72314453 C-198.0708152 264.69227126 -195.14935657 268.39236184 -192.01220703 273.16064453 C-191.00115339 274.75494789 -189.9933844 276.3513386 -188.98876953 277.94970703 C-188.48635742 278.74666992 -187.98394531 279.54363281 -187.46630859 280.36474609 C-185.31386108 283.85578757 -183.32382632 287.42131958 -181.38720703 291.03564453 C-181.05720703 291.63884521 -180.72720703 292.2420459 -180.38720703 292.86352539 C-177.17353989 298.92091027 -176.19798447 304.93020201 -177.01220703 311.72314453 C-178.37186575 315.98231644 -180.37697653 318.34444943 -184.26220703 320.66064453 C-193.22868455 323.2011465 -198.23846244 321.19649109 -206.28173828 316.86376953 C-210.68092878 314.39477723 -214.88401992 311.6408023 -219.09692383 308.87011719 C-225.89676323 304.42826326 -231.73009449 300.86042448 -240.01220703 301.72314453 C-241.71556704 303.42650454 -241.18403201 305.58760679 -241.19970703 307.91064453 C-241.17850922 311.21326341 -241.06141715 313.57551418 -240.01220703 316.72314453 C-237.93677022 322.94945496 -238.22279455 329.52177742 -240.51220703 335.66064453 C-242.53291001 339.69483368 -244.9124738 341.33731957 -249.01220703 343.06689453 C-252.9385984 344.3552417 -256.33532592 344.84279638 -260.48486328 344.86376953 C-261.55027344 344.88310547 -262.61568359 344.90244141 -263.71337891 344.92236328 C-265.92674306 344.95580167 -268.14038875 344.97441396 -270.35400391 344.97705078 C-277.35331891 345.13660325 -282.3937877 346.31667513 -288.57250977 349.65576172 C-291.25445955 350.82913152 -293.11718145 350.92607745 -296.01220703 350.72314453 C-296.90504728 347.7165319 -297.17886346 346.16281941 -296.05126953 343.18798828 C-295.58462891 342.35396484 -295.11798828 341.51994141 -294.63720703 340.66064453 C-292.00970924 335.89738736 -290.92043157 332.27601559 -290.76611328 326.83642578 C-290.73324219 325.89734375 -290.70037109 324.95826172 -290.66650391 323.99072266 C-290.6059158 322.04030144 -290.54855695 320.08977689 -290.49462891 318.13916016 C-289.95511223 303.20574561 -289.95511223 303.20574561 -285.76220703 297.84814453 C-279.88515625 293.30678711 -275.3276583 291.82737499 -268.01220703 292.72314453 C-265.22800593 293.42220801 -262.49167755 294.22931206 -259.74267578 295.05517578 C-255.73603581 296.03534092 -252.11878844 295.92510755 -248.01220703 295.72314453 C-246.04270669 281.93664212 -257.19470243 268.62958963 -264.33642578 257.69580078 C-267.66870427 251.97831244 -267.90720429 246.21644095 -267.01220703 239.72314453 C-265.21171312 235.77590788 -263.77928613 234.2345306 -260.19970703 231.84814453 C-251.80488108 228.88526479 -244.09707248 232.17179767 -236.35205078 235.57470703 C-229.54127548 238.91755835 -223.23641655 243.25406305 -216.95654297 247.48974609 C-212.49793024 250.31808757 -209.42016238 251.41142976 -204.01220703 250.72314453 C-200.56243116 246.24645864 -200.36961694 242.43354621 -200.56298828 236.94580078 C-202.45083576 223.40254714 -214.20416788 212.12431449 -222.48535156 201.90527344 C-232.67555667 189.2925332 -240.15751816 176.21913802 -245.01220703 160.72314453 C-245.34220703 159.73314453 -245.67220703 158.74314453 -246.01220703 157.72314453 C-246.80872373 151.31687451 -246.15068115 146.822602 -242.59423828 141.41455078 C-239.78832779 138.41465141 -237.16708305 136.90916483 -233.10205078 136.25439453 C-224.63351327 136.17044373 -218.50335489 137.84414049 -211.01220703 141.72314453 C-209.95775391 142.25810547 -208.90330078 142.79306641 -207.81689453 143.34423828 C-193.81778856 150.89596018 -181.31545645 160.87441334 -169.13720703 171.03564453 C-157.26878195 182.17627081 -157.26878195 182.17627081 -142.69970703 187.28564453 C-141.48283203 187.10001953 -140.26595703 186.91439453 -139.01220703 186.72314453 C-137.37921869 181.62005598 -137.42046288 177.17428822 -139.44580078 172.20751953 C-140.10071595 170.95581083 -140.7694711 169.71127523 -141.44970703 168.47314453 C-142.18214925 167.0744366 -142.91252842 165.67464688 -143.64111328 164.27392578 C-144.0267041 163.53996582 -144.41229492 162.80600586 -144.80957031 162.04980469 C-146.92257485 157.96191731 -148.90738355 153.81425658 -150.88720703 149.66064453 C-151.26804443 148.87592773 -151.64888184 148.09121094 -152.04125977 147.28271484 C-155.93716513 139.11154065 -159.09413048 130.51305395 -156.32470703 121.48095703 C-154.13160383 116.63785412 -151.37526196 113.72274479 -147.01220703 110.72314453 C-139.88550629 108.5292105 -134.51618184 109.11658421 -127.94970703 112.47314453 C-121.82505008 115.99248325 -116.21850716 120.1119951 -110.65649414 124.45849609 C-103.94644108 129.68986019 -98.79926891 133.5874457 -90.01220703 132.72314453 C-86.70676034 131.82978056 -86.1297 130.90777634 -84.26220703 127.97314453 C-81.36302216 120.43526387 -84.15629098 113.89347795 -87.10498047 106.76074219 C-92.32346916 95.04020758 -99.52411681 84.20526289 -106.3125 73.35888672 C-110.90809912 65.98235393 -115.14969934 58.5075831 -119.01220703 50.72314453 C-119.39119141 50.01931641 -119.77017578 49.31548828 -120.16064453 48.59033203 C-122.28520791 44.08781697 -122.30798468 39.44688019 -122.38720703 34.53564453 C-122.40138672 33.84543213 -122.41556641 33.15521973 -122.43017578 32.4440918 C-122.37882502 27.14918625 -121.19371431 23.92130454 -117.47705078 20.17626953 C-110.99302806 15.06865061 -106.20133497 14.94620437 -98.01220703 15.72314453 C-85.16181245 19.24791451 -75.5662186 27.87516841 -66.01220703 36.72314453 C-64.42955799 38.1197537 -62.84621592 39.51557788 -61.26220703 40.91064453 C-56.97015772 44.75588745 -52.9285106 48.80715881 -48.88720703 52.91064453 C-40.14792371 62.10096037 -40.14792371 62.10096037 -29.01220703 67.72314453 C-27.69220703 67.72314453 -26.37220703 67.72314453 -25.01220703 67.72314453 C-25.57464022 56.47448075 -30.79746176 46.96354566 -35.60058594 36.97460938 C-39.86789032 28.02125775 -42.2240257 18.83182685 -39.17236328 9.02392578 C-30.70461622 -7.76901367 -15.14858654 -5.59186218 0 0 Z " fill="#F2F4F6" transform="translate(375.01220703125,76.27685546875)"/>
</svg>
