<svg xmlns="http://www.w3.org/2000/svg" shape-rendering="geometricPrecision" text-rendering="geometricPrecision" image-rendering="optimizeQuality" fill-rule="evenodd" clip-rule="evenodd" viewBox="0 0 435 511.667"><g fill-rule="nonzero"><path fill="#2A3D50" d="M167.742 295.919c-68.858-15.316-83.98-24.232-83.842-90.918.151-72.58.042-145.662 71.402-188.733C211.663-17.753 286.762 3.88 319.789 59.83c25.038 42.422 54.368 188.224-.69 219.375-15.383 8.709-37.173 15.345-54.925 16.714-.109 3.67-.204 7.301 0 10.969 2.816 7.431 5.974 15.008 10.374 21.647-19.724 19.688-36.151 41.476-58.21 58.907-19.558-17.392-37.503-35.636-55.695-54.438 3.05-9.313 3.486-19.044 6.925-28.349.147-2.899.201-5.833.174-8.736z"/><path fill="#1981AC" d="M270.477 315.48c3.958 4.901 22.994 28.454 27.235 29.802h1.848c49.891 27.16 108.513 18.6 128.58 84.833 3.395 11.211 5.443 51.996 6.86 81.552H0c1.123-21.081 2.696-53.687 5.633-70.596 9.549-54.996 69.793-78.48 119.202-95.789l37.975-26.638c17.064 17.636 36.392 34.435 54.736 50.748 20.691-16.349 34.429-35.444 52.931-53.912z"/><path fill="#17749B" d="M367.571 511.667h-6.477v-31.641c0-.892.365-1.702.951-2.288a3.226 3.226 0 014.575 0 3.23 3.23 0 01.951 2.288v31.641zm-294.344 0h-6.478v-31.641c0-.888.365-1.698.952-2.286a3.217 3.217 0 012.287-.953 3.23 3.23 0 012.288.951c.586.587.951 1.397.951 2.288v31.641z"/><path fill="#C3303B" d="M217.546 369.392c14.424 10.075 24.369 26.358 36.769 38.668 6.482 4.93 11.34 11.819 17.832 16.719-6.24 22.174-15.203 44.442-23.723 65.839-1.504 6.576-3.824 13.707-6.463 21.049H191.21c-2.435-6.449-4.573-12.533-6.032-17.829-6.132-22.81-15.797-44.765-21.927-67.727 6.117-5.803 11.339-12.431 17.652-18.051 12.467-12.681 23.653-26.435 36.643-38.668z"/><path fill="#D73927" d="M217.546 369.392c14.424 10.075 24.369 26.358 36.769 38.668 6.482 4.93 11.34 11.818 17.832 16.719-6.24 22.174-15.203 44.442-23.723 65.839-1.504 6.576-3.824 13.706-6.463 21.049h-24.472v-142.22l.057-.055z"/><path fill="#FDFDFD" d="M180.903 408.06c6.986 8.872 14.99 17.084 21.589 26.203-6.87 19.484-10.193 40.195-17.313 59.575-6.134-22.811-15.797-44.765-21.928-67.727 6.118-5.802 11.339-12.431 17.652-18.051zM254.315 408.06c6.483 4.93 11.339 11.819 17.832 16.719-6.24 22.174-15.203 44.442-23.723 65.839-6.368-18.434-9.323-38.168-16.219-56.355 6.782-9.093 14.961-17.339 22.11-26.203z"/><path fill="#17749B" d="M124.905 345.264c2.747 7.571-8.462 38.466-10.028 46.193 7.982 12.578 19.701 22.298 28.098 34.654-3.496 9.726-8.749 18.702-11.949 28.522l39.706 57.034h-4.891l-43.443-55.672c3.199-9.819 8.453-18.796 11.949-28.522-8.398-12.355-20.118-22.076-28.098-34.652 1.64-8.104 11.371-35.342 10.435-44.316l8.221-3.241z"/><path fill="#5BB5DB" d="M162.809 318.638c17.063 17.635 36.393 34.441 54.737 50.754 20.691-16.349 34.431-35.446 52.933-53.914 3.958 4.369 22.991 28.417 27.233 29.804h1.848c-.376 7.144 20.061 40.272 23.959 50.103-8.642 9.999-18.827 19.47-25.807 30.726l13.874 24.165-45.52 61.391h-24.105c2.639-7.343 4.959-14.473 6.463-21.049 8.52-21.397 17.483-43.665 23.723-65.838-6.492-4.901-11.35-11.79-17.832-16.72-12.4-12.31-22.345-28.593-36.769-38.668-12.99 12.233-24.176 25.987-36.643 38.668-6.312 5.62-11.535 12.248-17.652 18.051l28.464 85.556h-20.968l-39.721-57.034c3.2-9.82 8.453-18.795 11.949-28.522-8.398-12.356-20.117-22.076-28.098-34.653 1.78-8.788 13.075-40.083 9.959-46.176l37.973-26.644z"/><path fill="#17749B" d="M306.347 350.749c5.206 10.964 19.687 37.396 23.057 45.896-8.641 10.001-18.826 19.471-25.806 30.728 3.655 8.452 9.117 16.289 13.874 24.166l-44.585 60.128h-6.798l45.497-61.391c-4.758-7.875-10.219-15.713-13.874-24.165 6.98-11.256 17.165-20.726 25.807-30.726-3.629-9.152-21.583-38.482-23.748-48.259l-.222-1.454c-.173.011 5.005 1.302 6.798 5.077z"/><path fill="#EAA16E" d="M126.629 202.907c-15.113-11.45-28.111-20.133-29.856-43.177-2.185-28.942 13.217-27.463 28.769-12.561-2.85 23.101-3.003 40.158 1.087 55.738zM305.176 146.447c17.078-12.386 32.547-3.841 29.32 18.971-2.618 18.523-16.435 27.071-28.146 39.291 3.043-17.769 1.501-36.922-1.174-58.262z"/><path fill="#FFC490" d="M127.919 130.202c27.638-7.455 47.699-22.703 65.459-44.877 28.432 24.997 73.434 43.091 110.394 50.354 7.338 54.821 11.206 95.345-41.182 133.872 1.617 11.261.982 20.448 1.584 31.299l10.374 21.646-56.933 47.121-56.972-42.651c3.05-9.313 3.486-19.044 6.925-28.349.542-10.661 1.215-18.289 2.941-29.066-47.682-51.713-52.963-71.78-42.59-139.349z"/><path fill="#EAA16E" d="M170.509 269.551c42.425 24.557 50.515 29.966 92.081 0 1.617 11.259.984 20.448 1.584 31.299-28.416 9.322-48.382 22.566-79.682 7.325-5.852-2.853-10.86-7.064-16.924-9.558.542-10.661 1.216-18.29 2.941-29.066z"/><path fill="#E9EFEF" d="M217.546 369.392c-12.99 12.233-24.176 25.987-36.642 38.669-6.314 5.619-11.536 12.247-17.653 18.05-6.809-17.191-23.602-70.457-26.422-89.245l1.054-.74a229.884 229.884 0 003.401-2.387l20.856-14.632.668-.423c17.291 17.873 36.15 34.196 54.738 50.708zm0 0c20.69-16.349 34.908-35.911 53.41-54.38.361.4.373 1.428.963 2.123.578.695 1.252 1.499 2.003 2.385 6.825 8.175 19.998 24.24 23.661 25.711l.111.083c-7.236 26.816-16.876 53.082-25.547 79.466-6.492-4.901-11.35-11.79-17.832-16.719-12.4-12.311-22.345-28.594-36.769-38.669z"/></g></svg>